ISO-10303-21;
HEADER;
/* Generated by software containing ST-Developer
 * from STEP Tools, Inc. (www.steptools.com) 
 */
/* OPTION: using custom renumber hook */

FILE_DESCRIPTION(
/* description */ ('STEP AP242 Edition 2',
'CAx-IF Rec.Pracs.---Representation and Presentation of Product Manufa
cturing Information (PMI)---4.0---2014-10-13',
'CAx-IF Rec.Pracs.---3D Tessellated Geometry---0.4---2014-09-14','2;1',
'CAx-IF Rec.Pracs.---User Defined Attributes---1.5---2016-08-15'),
/* implementation_level */ '2;1');

FILE_NAME(
/* name */ 'LevelSense - Top cover',
/* time_stamp */ '2026-07-29T22:00:55Z',
/* author */ (''),
/* organization */ (''),
/* preprocessor_version */ 'ST-DEVELOPER v20',
/* originating_system */ 'ONSHAPE BY PTC INC, 1.218',
/* authorisation */ '  ');

FILE_SCHEMA (('AP242_MANAGED_MODEL_BASED_3D_ENGINEERING_MIM_LF { 1 0 10303 442 3 1 4 }'));
ENDSEC;

DATA;
#10=SHAPE_REPRESENTATION_RELATIONSHIP('','',#357,#11);
#11=ADVANCED_BREP_SHAPE_REPRESENTATION('',(#355),#599);
#12=CIRCLE('',#361,0.522132034355965);
#13=CIRCLE('',#362,0.522132034355965);
#14=CIRCLE('',#365,0.522132034355965);
#15=CIRCLE('',#366,0.522132034355965);
#16=CIRCLE('',#369,0.522132034355965);
#17=CIRCLE('',#370,0.522132034355965);
#18=CIRCLE('',#373,0.522132034355964);
#19=CIRCLE('',#374,0.522132034355964);
#20=CIRCLE('',#377,0.362132034355964);
#21=CIRCLE('',#378,0.362132034355965);
#22=CIRCLE('',#379,0.362132034355965);
#23=CIRCLE('',#380,0.362132034355965);
#24=CIRCLE('',#382,0.362132034355965);
#25=CIRCLE('',#383,0.362132034355965);
#26=CIRCLE('',#384,0.362132034355965);
#27=CIRCLE('',#385,0.362132034355964);
#28=CYLINDRICAL_SURFACE('',#360,0.522132034355965);
#29=CYLINDRICAL_SURFACE('',#364,0.522132034355965);
#30=CYLINDRICAL_SURFACE('',#368,0.522132034355965);
#31=CYLINDRICAL_SURFACE('',#372,0.522132034355964);
#32=CYLINDRICAL_SURFACE('',#386,0.362132034355964);
#33=CYLINDRICAL_SURFACE('',#388,0.362132034355965);
#34=CYLINDRICAL_SURFACE('',#390,0.362132034355965);
#35=CYLINDRICAL_SURFACE('',#392,0.362132034355965);
#36=ORIENTED_EDGE('',*,*,#132,.F.);
#37=ORIENTED_EDGE('',*,*,#133,.T.);
#38=ORIENTED_EDGE('',*,*,#134,.T.);
#39=ORIENTED_EDGE('',*,*,#135,.F.);
#40=ORIENTED_EDGE('',*,*,#136,.F.);
#41=ORIENTED_EDGE('',*,*,#135,.T.);
#42=ORIENTED_EDGE('',*,*,#137,.T.);
#43=ORIENTED_EDGE('',*,*,#138,.F.);
#44=ORIENTED_EDGE('',*,*,#139,.F.);
#45=ORIENTED_EDGE('',*,*,#140,.T.);
#46=ORIENTED_EDGE('',*,*,#138,.T.);
#47=ORIENTED_EDGE('',*,*,#141,.F.);
#48=ORIENTED_EDGE('',*,*,#142,.F.);
#49=ORIENTED_EDGE('',*,*,#139,.T.);
#50=ORIENTED_EDGE('',*,*,#143,.T.);
#51=ORIENTED_EDGE('',*,*,#144,.F.);
#52=ORIENTED_EDGE('',*,*,#145,.F.);
#53=ORIENTED_EDGE('',*,*,#146,.T.);
#54=ORIENTED_EDGE('',*,*,#144,.T.);
#55=ORIENTED_EDGE('',*,*,#147,.F.);
#56=ORIENTED_EDGE('',*,*,#148,.F.);
#57=ORIENTED_EDGE('',*,*,#145,.T.);
#58=ORIENTED_EDGE('',*,*,#149,.T.);
#59=ORIENTED_EDGE('',*,*,#150,.F.);
#60=ORIENTED_EDGE('',*,*,#151,.F.);
#61=ORIENTED_EDGE('',*,*,#150,.T.);
#62=ORIENTED_EDGE('',*,*,#152,.T.);
#63=ORIENTED_EDGE('',*,*,#153,.F.);
#64=ORIENTED_EDGE('',*,*,#154,.F.);
#65=ORIENTED_EDGE('',*,*,#153,.T.);
#66=ORIENTED_EDGE('',*,*,#155,.T.);
#67=ORIENTED_EDGE('',*,*,#133,.F.);
#68=ORIENTED_EDGE('',*,*,#134,.F.);
#69=ORIENTED_EDGE('',*,*,#155,.F.);
#70=ORIENTED_EDGE('',*,*,#152,.F.);
#71=ORIENTED_EDGE('',*,*,#149,.F.);
#72=ORIENTED_EDGE('',*,*,#147,.T.);
#73=ORIENTED_EDGE('',*,*,#143,.F.);
#74=ORIENTED_EDGE('',*,*,#141,.T.);
#75=ORIENTED_EDGE('',*,*,#137,.F.);
#76=ORIENTED_EDGE('',*,*,#156,.F.);
#77=ORIENTED_EDGE('',*,*,#157,.F.);
#78=ORIENTED_EDGE('',*,*,#158,.F.);
#79=ORIENTED_EDGE('',*,*,#159,.F.);
#80=ORIENTED_EDGE('',*,*,#160,.T.);
#81=ORIENTED_EDGE('',*,*,#161,.F.);
#82=ORIENTED_EDGE('',*,*,#162,.T.);
#83=ORIENTED_EDGE('',*,*,#163,.F.);
#84=ORIENTED_EDGE('',*,*,#154,.T.);
#85=ORIENTED_EDGE('',*,*,#132,.T.);
#86=ORIENTED_EDGE('',*,*,#136,.T.);
#87=ORIENTED_EDGE('',*,*,#140,.F.);
#88=ORIENTED_EDGE('',*,*,#142,.T.);
#89=ORIENTED_EDGE('',*,*,#146,.F.);
#90=ORIENTED_EDGE('',*,*,#148,.T.);
#91=ORIENTED_EDGE('',*,*,#151,.T.);
#92=ORIENTED_EDGE('',*,*,#164,.T.);
#93=ORIENTED_EDGE('',*,*,#165,.T.);
#94=ORIENTED_EDGE('',*,*,#166,.F.);
#95=ORIENTED_EDGE('',*,*,#167,.T.);
#96=ORIENTED_EDGE('',*,*,#168,.F.);
#97=ORIENTED_EDGE('',*,*,#169,.T.);
#98=ORIENTED_EDGE('',*,*,#170,.T.);
#99=ORIENTED_EDGE('',*,*,#171,.T.);
#100=ORIENTED_EDGE('',*,*,#172,.F.);
#101=ORIENTED_EDGE('',*,*,#157,.T.);
#102=ORIENTED_EDGE('',*,*,#173,.T.);
#103=ORIENTED_EDGE('',*,*,#171,.F.);
#104=ORIENTED_EDGE('',*,*,#174,.F.);
#105=ORIENTED_EDGE('',*,*,#158,.T.);
#106=ORIENTED_EDGE('',*,*,#172,.T.);
#107=ORIENTED_EDGE('',*,*,#170,.F.);
#108=ORIENTED_EDGE('',*,*,#175,.F.);
#109=ORIENTED_EDGE('',*,*,#159,.T.);
#110=ORIENTED_EDGE('',*,*,#174,.T.);
#111=ORIENTED_EDGE('',*,*,#169,.F.);
#112=ORIENTED_EDGE('',*,*,#160,.F.);
#113=ORIENTED_EDGE('',*,*,#175,.T.);
#114=ORIENTED_EDGE('',*,*,#168,.T.);
#115=ORIENTED_EDGE('',*,*,#176,.F.);
#116=ORIENTED_EDGE('',*,*,#177,.F.);
#117=ORIENTED_EDGE('',*,*,#161,.T.);
#118=ORIENTED_EDGE('',*,*,#176,.T.);
#119=ORIENTED_EDGE('',*,*,#167,.F.);
#120=ORIENTED_EDGE('',*,*,#162,.F.);
#121=ORIENTED_EDGE('',*,*,#177,.T.);
#122=ORIENTED_EDGE('',*,*,#166,.T.);
#123=ORIENTED_EDGE('',*,*,#178,.F.);
#124=ORIENTED_EDGE('',*,*,#179,.F.);
#125=ORIENTED_EDGE('',*,*,#163,.T.);
#126=ORIENTED_EDGE('',*,*,#178,.T.);
#127=ORIENTED_EDGE('',*,*,#165,.F.);
#128=ORIENTED_EDGE('',*,*,#173,.F.);
#129=ORIENTED_EDGE('',*,*,#156,.T.);
#130=ORIENTED_EDGE('',*,*,#179,.T.);
#131=ORIENTED_EDGE('',*,*,#164,.F.);
#132=EDGE_CURVE('',#180,#181,#212,.T.);
#133=EDGE_CURVE('',#180,#182,#213,.F.);
#134=EDGE_CURVE('',#182,#183,#214,.T.);
#135=EDGE_CURVE('',#181,#183,#215,.T.);
#136=EDGE_CURVE('',#181,#184,#12,.T.);
#137=EDGE_CURVE('',#183,#185,#13,.T.);
#138=EDGE_CURVE('',#184,#185,#216,.F.);
#139=EDGE_CURVE('',#186,#187,#217,.T.);
#140=EDGE_CURVE('',#186,#184,#218,.T.);
#141=EDGE_CURVE('',#187,#185,#219,.T.);
#142=EDGE_CURVE('',#186,#188,#14,.T.);
#143=EDGE_CURVE('',#187,#189,#15,.T.);
#144=EDGE_CURVE('',#188,#189,#220,.F.);
#145=EDGE_CURVE('',#190,#191,#221,.T.);
#146=EDGE_CURVE('',#190,#188,#222,.T.);
#147=EDGE_CURVE('',#191,#189,#223,.T.);
#148=EDGE_CURVE('',#190,#192,#16,.T.);
#149=EDGE_CURVE('',#191,#193,#17,.T.);
#150=EDGE_CURVE('',#192,#193,#224,.F.);
#151=EDGE_CURVE('',#192,#194,#225,.T.);
#152=EDGE_CURVE('',#193,#195,#226,.T.);
#153=EDGE_CURVE('',#194,#195,#227,.T.);
#154=EDGE_CURVE('',#194,#180,#18,.T.);
#155=EDGE_CURVE('',#195,#182,#19,.T.);
#156=EDGE_CURVE('',#196,#197,#228,.T.);
#157=EDGE_CURVE('',#198,#196,#20,.T.);
#158=EDGE_CURVE('',#199,#198,#229,.T.);
#159=EDGE_CURVE('',#200,#199,#21,.T.);
#160=EDGE_CURVE('',#200,#201,#230,.T.);
#161=EDGE_CURVE('',#202,#201,#22,.T.);
#162=EDGE_CURVE('',#202,#203,#231,.T.);
#163=EDGE_CURVE('',#197,#203,#23,.T.);
#164=EDGE_CURVE('',#204,#205,#232,.T.);
#165=EDGE_CURVE('',#205,#206,#24,.T.);
#166=EDGE_CURVE('',#207,#206,#233,.T.);
#167=EDGE_CURVE('',#207,#208,#25,.T.);
#168=EDGE_CURVE('',#209,#208,#234,.T.);
#169=EDGE_CURVE('',#209,#210,#26,.T.);
#170=EDGE_CURVE('',#210,#211,#235,.T.);
#171=EDGE_CURVE('',#211,#204,#27,.T.);
#172=EDGE_CURVE('',#198,#211,#236,.T.);
#173=EDGE_CURVE('',#196,#204,#237,.T.);
#174=EDGE_CURVE('',#199,#210,#238,.T.);
#175=EDGE_CURVE('',#200,#209,#239,.T.);
#176=EDGE_CURVE('',#201,#208,#240,.T.);
#177=EDGE_CURVE('',#202,#207,#241,.T.);
#178=EDGE_CURVE('',#203,#206,#242,.T.);
#179=EDGE_CURVE('',#197,#205,#243,.T.);
#180=VERTEX_POINT('',#501);
#181=VERTEX_POINT('',#502);
#182=VERTEX_POINT('',#504);
#183=VERTEX_POINT('',#506);
#184=VERTEX_POINT('',#510);
#185=VERTEX_POINT('',#512);
#186=VERTEX_POINT('',#516);
#187=VERTEX_POINT('',#517);
#188=VERTEX_POINT('',#522);
#189=VERTEX_POINT('',#524);
#190=VERTEX_POINT('',#528);
#191=VERTEX_POINT('',#529);
#192=VERTEX_POINT('',#534);
#193=VERTEX_POINT('',#536);
#194=VERTEX_POINT('',#540);
#195=VERTEX_POINT('',#542);
#196=VERTEX_POINT('',#550);
#197=VERTEX_POINT('',#551);
#198=VERTEX_POINT('',#553);
#199=VERTEX_POINT('',#555);
#200=VERTEX_POINT('',#557);
#201=VERTEX_POINT('',#559);
#202=VERTEX_POINT('',#561);
#203=VERTEX_POINT('',#563);
#204=VERTEX_POINT('',#567);
#205=VERTEX_POINT('',#568);
#206=VERTEX_POINT('',#570);
#207=VERTEX_POINT('',#572);
#208=VERTEX_POINT('',#574);
#209=VERTEX_POINT('',#576);
#210=VERTEX_POINT('',#578);
#211=VERTEX_POINT('',#580);
#212=LINE('',#500,#244);
#213=LINE('',#503,#245);
#214=LINE('',#505,#246);
#215=LINE('',#507,#247);
#216=LINE('',#513,#248);
#217=LINE('',#515,#249);
#218=LINE('',#518,#250);
#219=LINE('',#519,#251);
#220=LINE('',#525,#252);
#221=LINE('',#527,#253);
#222=LINE('',#530,#254);
#223=LINE('',#531,#255);
#224=LINE('',#537,#256);
#225=LINE('',#539,#257);
#226=LINE('',#541,#258);
#227=LINE('',#543,#259);
#228=LINE('',#549,#260);
#229=LINE('',#554,#261);
#230=LINE('',#558,#262);
#231=LINE('',#562,#263);
#232=LINE('',#566,#264);
#233=LINE('',#571,#265);
#234=LINE('',#575,#266);
#235=LINE('',#579,#267);
#236=LINE('',#583,#268);
#237=LINE('',#584,#269);
#238=LINE('',#586,#270);
#239=LINE('',#588,#271);
#240=LINE('',#590,#272);
#241=LINE('',#592,#273);
#242=LINE('',#594,#274);
#243=LINE('',#596,#275);
#244=VECTOR('',#398,100.);
#245=VECTOR('',#399,100.);
#246=VECTOR('',#400,100.);
#247=VECTOR('',#401,100.);
#248=VECTOR('',#408,100.);
#249=VECTOR('',#411,100.);
#250=VECTOR('',#412,100.);
#251=VECTOR('',#413,100.);
#252=VECTOR('',#420,100.);
#253=VECTOR('',#423,100.);
#254=VECTOR('',#424,100.);
#255=VECTOR('',#425,100.);
#256=VECTOR('',#432,100.);
#257=VECTOR('',#435,100.);
#258=VECTOR('',#436,100.);
#259=VECTOR('',#437,100.);
#260=VECTOR('',#448,100.);
#261=VECTOR('',#451,100.);
#262=VECTOR('',#454,100.);
#263=VECTOR('',#457,100.);
#264=VECTOR('',#462,100.);
#265=VECTOR('',#465,100.);
#266=VECTOR('',#468,100.);
#267=VECTOR('',#471,100.);
#268=VECTOR('',#476,100.);
#269=VECTOR('',#477,100.);
#270=VECTOR('',#480,100.);
#271=VECTOR('',#483,100.);
#272=VECTOR('',#486,100.);
#273=VECTOR('',#489,100.);
#274=VECTOR('',#492,100.);
#275=VECTOR('',#495,100.);
#276=EDGE_LOOP('',(#36,#37,#38,#39));
#277=EDGE_LOOP('',(#40,#41,#42,#43));
#278=EDGE_LOOP('',(#44,#45,#46,#47));
#279=EDGE_LOOP('',(#48,#49,#50,#51));
#280=EDGE_LOOP('',(#52,#53,#54,#55));
#281=EDGE_LOOP('',(#56,#57,#58,#59));
#282=EDGE_LOOP('',(#60,#61,#62,#63));
#283=EDGE_LOOP('',(#64,#65,#66,#67));
#284=EDGE_LOOP('',(#68,#69,#70,#71,#72,#73,#74,#75));
#285=EDGE_LOOP('',(#76,#77,#78,#79,#80,#81,#82,#83));
#286=EDGE_LOOP('',(#84,#85,#86,#87,#88,#89,#90,#91));
#287=EDGE_LOOP('',(#92,#93,#94,#95,#96,#97,#98,#99));
#288=EDGE_LOOP('',(#100,#101,#102,#103));
#289=EDGE_LOOP('',(#104,#105,#106,#107));
#290=EDGE_LOOP('',(#108,#109,#110,#111));
#291=EDGE_LOOP('',(#112,#113,#114,#115));
#292=EDGE_LOOP('',(#116,#117,#118,#119));
#293=EDGE_LOOP('',(#120,#121,#122,#123));
#294=EDGE_LOOP('',(#124,#125,#126,#127));
#295=EDGE_LOOP('',(#128,#129,#130,#131));
#296=FACE_BOUND('',#276,.T.);
#297=FACE_BOUND('',#277,.T.);
#298=FACE_BOUND('',#278,.T.);
#299=FACE_BOUND('',#279,.T.);
#300=FACE_BOUND('',#280,.T.);
#301=FACE_BOUND('',#281,.T.);
#302=FACE_BOUND('',#282,.T.);
#303=FACE_BOUND('',#283,.T.);
#304=FACE_BOUND('',#284,.T.);
#305=FACE_BOUND('',#285,.T.);
#306=FACE_BOUND('',#286,.T.);
#307=FACE_BOUND('',#287,.T.);
#308=FACE_BOUND('',#288,.T.);
#309=FACE_BOUND('',#289,.T.);
#310=FACE_BOUND('',#290,.T.);
#311=FACE_BOUND('',#291,.T.);
#312=FACE_BOUND('',#292,.T.);
#313=FACE_BOUND('',#293,.T.);
#314=FACE_BOUND('',#294,.T.);
#315=FACE_BOUND('',#295,.T.);
#316=PLANE('',#359);
#317=PLANE('',#363);
#318=PLANE('',#367);
#319=PLANE('',#371);
#320=PLANE('',#375);
#321=PLANE('',#376);
#322=PLANE('',#381);
#323=PLANE('',#387);
#324=PLANE('',#389);
#325=PLANE('',#391);
#326=PLANE('',#393);
#327=ADVANCED_FACE('',(#296),#316,.F.);
#328=ADVANCED_FACE('',(#297),#28,.T.);
#329=ADVANCED_FACE('',(#298),#317,.T.);
#330=ADVANCED_FACE('',(#299),#29,.T.);
#331=ADVANCED_FACE('',(#300),#318,.T.);
#332=ADVANCED_FACE('',(#301),#30,.T.);
#333=ADVANCED_FACE('',(#302),#319,.F.);
#334=ADVANCED_FACE('',(#303),#31,.T.);
#335=ADVANCED_FACE('',(#304),#320,.F.);
#336=ADVANCED_FACE('',(#305,#306),#321,.T.);
#337=ADVANCED_FACE('',(#307),#322,.T.);
#338=ADVANCED_FACE('',(#308),#32,.F.);
#339=ADVANCED_FACE('',(#309),#323,.T.);
#340=ADVANCED_FACE('',(#310),#33,.F.);
#341=ADVANCED_FACE('',(#311),#324,.F.);
#342=ADVANCED_FACE('',(#312),#34,.F.);
#343=ADVANCED_FACE('',(#313),#325,.F.);
#344=ADVANCED_FACE('',(#314),#35,.F.);
#345=ADVANCED_FACE('',(#315),#326,.T.);
#346=CLOSED_SHELL('',(#327,#328,#329,#330,#331,#332,#333,#334,#335,#336,
#337,#338,#339,#340,#341,#342,#343,#344,#345));
#347=STYLED_ITEM('',(#348),#355);
#348=PRESENTATION_STYLE_ASSIGNMENT((#349));
#349=SURFACE_STYLE_USAGE(.BOTH.,#350);
#350=SURFACE_SIDE_STYLE('',(#351));
#351=SURFACE_STYLE_FILL_AREA(#352);
#352=FILL_AREA_STYLE('',(#353));
#353=FILL_AREA_STYLE_COLOUR('',#354);
#354=COLOUR_RGB('',0.647058823529412,0.647058823529412,0.647058823529412);
#355=MANIFOLD_SOLID_BREP('Top cover',#346);
#356=SHAPE_DEFINITION_REPRESENTATION(#604,#357);
#357=SHAPE_REPRESENTATION('Top cover',(#358),#599);
#358=AXIS2_PLACEMENT_3D('',#498,#394,#395);
#359=AXIS2_PLACEMENT_3D('',#499,#396,#397);
#360=AXIS2_PLACEMENT_3D('',#508,#402,#403);
#361=AXIS2_PLACEMENT_3D('',#509,#404,#405);
#362=AXIS2_PLACEMENT_3D('',#511,#406,#407);
#363=AXIS2_PLACEMENT_3D('',#514,#409,#410);
#364=AXIS2_PLACEMENT_3D('',#520,#414,#415);
#365=AXIS2_PLACEMENT_3D('',#521,#416,#417);
#366=AXIS2_PLACEMENT_3D('',#523,#418,#419);
#367=AXIS2_PLACEMENT_3D('',#526,#421,#422);
#368=AXIS2_PLACEMENT_3D('',#532,#426,#427);
#369=AXIS2_PLACEMENT_3D('',#533,#428,#429);
#370=AXIS2_PLACEMENT_3D('',#535,#430,#431);
#371=AXIS2_PLACEMENT_3D('',#538,#433,#434);
#372=AXIS2_PLACEMENT_3D('',#544,#438,#439);
#373=AXIS2_PLACEMENT_3D('',#545,#440,#441);
#374=AXIS2_PLACEMENT_3D('',#546,#442,#443);
#375=AXIS2_PLACEMENT_3D('',#547,#444,#445);
#376=AXIS2_PLACEMENT_3D('',#548,#446,#447);
#377=AXIS2_PLACEMENT_3D('',#552,#449,#450);
#378=AXIS2_PLACEMENT_3D('',#556,#452,#453);
#379=AXIS2_PLACEMENT_3D('',#560,#455,#456);
#380=AXIS2_PLACEMENT_3D('',#564,#458,#459);
#381=AXIS2_PLACEMENT_3D('',#565,#460,#461);
#382=AXIS2_PLACEMENT_3D('',#569,#463,#464);
#383=AXIS2_PLACEMENT_3D('',#573,#466,#467);
#384=AXIS2_PLACEMENT_3D('',#577,#469,#470);
#385=AXIS2_PLACEMENT_3D('',#581,#472,#473);
#386=AXIS2_PLACEMENT_3D('',#582,#474,#475);
#387=AXIS2_PLACEMENT_3D('',#585,#478,#479);
#388=AXIS2_PLACEMENT_3D('',#587,#481,#482);
#389=AXIS2_PLACEMENT_3D('',#589,#484,#485);
#390=AXIS2_PLACEMENT_3D('',#591,#487,#488);
#391=AXIS2_PLACEMENT_3D('',#593,#490,#491);
#392=AXIS2_PLACEMENT_3D('',#595,#493,#494);
#393=AXIS2_PLACEMENT_3D('',#597,#496,#497);
#394=DIRECTION('',(0.,0.,1.));
#395=DIRECTION('',(1.,0.,0.));
#396=DIRECTION('',(0.,1.,0.));
#397=DIRECTION('',(0.,0.,1.));
#398=DIRECTION('',(1.,0.,0.));
#399=DIRECTION('',(0.,0.,1.));
#400=DIRECTION('',(1.,0.,0.));
#401=DIRECTION('',(0.,0.,-1.));
#402=DIRECTION('',(0.,0.,-1.));
#403=DIRECTION('',(-1.,0.,0.));
#404=DIRECTION('',(0.,0.,1.));
#405=DIRECTION('',(1.,0.,0.));
#406=DIRECTION('',(0.,0.,1.));
#407=DIRECTION('',(1.,0.,0.));
#408=DIRECTION('',(0.,0.,1.));
#409=DIRECTION('',(1.,1.14828238478822E-16,0.));
#410=DIRECTION('',(-1.14828238478822E-16,1.,0.));
#411=DIRECTION('',(0.,0.,-1.));
#412=DIRECTION('',(1.14828238478822E-16,-1.,0.));
#413=DIRECTION('',(1.14828238478822E-16,-1.,0.));
#414=DIRECTION('',(0.,0.,-1.));
#415=DIRECTION('',(-1.,0.,0.));
#416=DIRECTION('',(0.,0.,1.));
#417=DIRECTION('',(1.,0.,0.));
#418=DIRECTION('',(0.,0.,1.));
#419=DIRECTION('',(1.,0.,0.));
#420=DIRECTION('',(0.,0.,1.));
#421=DIRECTION('',(0.,1.,0.));
#422=DIRECTION('',(0.,0.,1.));
#423=DIRECTION('',(0.,0.,-1.));
#424=DIRECTION('',(1.,0.,0.));
#425=DIRECTION('',(1.,0.,0.));
#426=DIRECTION('',(0.,0.,-1.));
#427=DIRECTION('',(-1.,0.,0.));
#428=DIRECTION('',(0.,0.,1.));
#429=DIRECTION('',(1.,0.,0.));
#430=DIRECTION('',(0.,0.,1.));
#431=DIRECTION('',(1.,0.,0.));
#432=DIRECTION('',(0.,0.,1.));
#433=DIRECTION('',(1.,1.14828238478822E-16,0.));
#434=DIRECTION('',(-1.14828238478822E-16,1.,0.));
#435=DIRECTION('',(1.14828238478822E-16,-1.,0.));
#436=DIRECTION('',(1.14828238478822E-16,-1.,0.));
#437=DIRECTION('',(0.,0.,-1.));
#438=DIRECTION('',(0.,0.,-1.));
#439=DIRECTION('',(-1.,0.,0.));
#440=DIRECTION('',(0.,0.,1.));
#441=DIRECTION('',(1.,0.,0.));
#442=DIRECTION('',(0.,0.,1.));
#443=DIRECTION('',(1.,0.,0.));
#444=DIRECTION('',(0.,0.,1.));
#445=DIRECTION('',(1.,0.,0.));
#446=DIRECTION('',(0.,0.,1.));
#447=DIRECTION('',(1.,0.,0.));
#448=DIRECTION('',(1.,0.,0.));
#449=DIRECTION('',(0.,0.,1.));
#450=DIRECTION('',(1.,0.,0.));
#451=DIRECTION('',(1.14828238478822E-16,-1.,0.));
#452=DIRECTION('',(0.,0.,1.));
#453=DIRECTION('',(1.,0.,0.));
#454=DIRECTION('',(1.,0.,0.));
#455=DIRECTION('',(0.,0.,1.));
#456=DIRECTION('',(1.,0.,0.));
#457=DIRECTION('',(1.14828238478822E-16,-1.,0.));
#458=DIRECTION('',(0.,0.,1.));
#459=DIRECTION('',(1.,0.,0.));
#460=DIRECTION('',(0.,0.,1.));
#461=DIRECTION('',(1.,0.,0.));
#462=DIRECTION('',(1.,0.,0.));
#463=DIRECTION('',(0.,0.,1.));
#464=DIRECTION('',(1.,0.,0.));
#465=DIRECTION('',(1.14828238478822E-16,-1.,0.));
#466=DIRECTION('',(0.,0.,1.));
#467=DIRECTION('',(1.,0.,0.));
#468=DIRECTION('',(1.,0.,0.));
#469=DIRECTION('',(0.,0.,1.));
#470=DIRECTION('',(1.,0.,0.));
#471=DIRECTION('',(1.14828238478822E-16,-1.,0.));
#472=DIRECTION('',(0.,0.,1.));
#473=DIRECTION('',(1.,0.,0.));
#474=DIRECTION('',(0.,0.,-1.));
#475=DIRECTION('',(-1.,0.,0.));
#476=DIRECTION('',(0.,0.,-1.));
#477=DIRECTION('',(0.,0.,-1.));
#478=DIRECTION('',(1.,1.14828238478822E-16,0.));
#479=DIRECTION('',(-1.14828238478822E-16,1.,0.));
#480=DIRECTION('',(0.,0.,-1.));
#481=DIRECTION('',(0.,0.,-1.));
#482=DIRECTION('',(-1.,0.,0.));
#483=DIRECTION('',(0.,0.,-1.));
#484=DIRECTION('',(0.,1.,0.));
#485=DIRECTION('',(0.,0.,1.));
#486=DIRECTION('',(0.,0.,-1.));
#487=DIRECTION('',(0.,0.,-1.));
#488=DIRECTION('',(-1.,0.,0.));
#489=DIRECTION('',(0.,0.,-1.));
#490=DIRECTION('',(1.,1.14828238478822E-16,0.));
#491=DIRECTION('',(-1.14828238478822E-16,1.,0.));
#492=DIRECTION('',(0.,0.,-1.));
#493=DIRECTION('',(0.,0.,-1.));
#494=DIRECTION('',(-1.,0.,0.));
#495=DIRECTION('',(0.,0.,-1.));
#496=DIRECTION('',(0.,1.,0.));
#497=DIRECTION('',(0.,0.,1.));
#498=CARTESIAN_POINT('',(0.,0.,0.));
#499=CARTESIAN_POINT('',(0.000508849642532998,-1.38562628239393,0.43));
#500=CARTESIAN_POINT('',(0.000508849642532998,-1.38562628239393,0.));
#501=CARTESIAN_POINT('',(-0.938992891004678,-1.38562628239393,0.));
#502=CARTESIAN_POINT('',(0.940010590289745,-1.38562628239393,1.7347234759768E-16));
#503=CARTESIAN_POINT('',(-0.938992891004678,-1.38562628239393,0.43));
#504=CARTESIAN_POINT('',(-0.938992891004678,-1.38562628239393,-0.78));
#505=CARTESIAN_POINT('',(0.000508849642532998,-1.38562628239393,-0.78));
#506=CARTESIAN_POINT('',(0.940010590289745,-1.38562628239393,-0.78));
#507=CARTESIAN_POINT('',(0.940010590289745,-1.38562628239393,0.43));
#508=CARTESIAN_POINT('',(0.940010590289744,-0.863494248037968,0.43));
#509=CARTESIAN_POINT('',(0.940010590289744,-0.863494248037968,0.));
#510=CARTESIAN_POINT('',(1.46214262464571,-0.863494248037968,1.7347234759768E-16));
#511=CARTESIAN_POINT('',(0.940010590289744,-0.863494248037968,-0.78));
#512=CARTESIAN_POINT('',(1.46214262464571,-0.863494248037968,-0.78));
#513=CARTESIAN_POINT('',(1.46214262464571,-0.863494248037968,0.43));
#514=CARTESIAN_POINT('',(1.46214262464571,0.647217314690352,0.43));
#515=CARTESIAN_POINT('',(1.46214262464571,2.15792887741867,0.43));
#516=CARTESIAN_POINT('',(1.46214262464571,2.15792887741867,1.7347234759768E-16));
#517=CARTESIAN_POINT('',(1.46214262464571,2.15792887741867,-0.78));
#518=CARTESIAN_POINT('',(1.46214262464571,0.647217314690352,0.));
#519=CARTESIAN_POINT('',(1.46214262464571,0.647217314690352,-0.78));
#520=CARTESIAN_POINT('',(0.940010590289743,2.15792887741867,0.43));
#521=CARTESIAN_POINT('',(0.940010590289743,2.15792887741867,0.));
#522=CARTESIAN_POINT('',(0.940010590289744,2.68006091177464,0.));
#523=CARTESIAN_POINT('',(0.940010590289743,2.15792887741867,-0.78));
#524=CARTESIAN_POINT('',(0.940010590289744,2.68006091177464,-0.78));
#525=CARTESIAN_POINT('',(0.940010590289744,2.68006091177464,0.43));
#526=CARTESIAN_POINT('',(0.000508849642532651,2.68006091177464,0.43));
#527=CARTESIAN_POINT('',(-0.93899289100468,2.68006091177464,0.43));
#528=CARTESIAN_POINT('',(-0.93899289100468,2.68006091177464,1.7347234759768E-16));
#529=CARTESIAN_POINT('',(-0.93899289100468,2.68006091177464,-0.78));
#530=CARTESIAN_POINT('',(0.000508849642532651,2.68006091177464,0.));
#531=CARTESIAN_POINT('',(0.000508849642532651,2.68006091177464,-0.78));
#532=CARTESIAN_POINT('',(-0.938992891004678,2.15792887741867,0.43));
#533=CARTESIAN_POINT('',(-0.938992891004678,2.15792887741867,0.));
#534=CARTESIAN_POINT('',(-1.46112492536064,2.15792887741867,1.7347234759768E-16));
#535=CARTESIAN_POINT('',(-0.938992891004678,2.15792887741867,-0.78));
#536=CARTESIAN_POINT('',(-1.46112492536064,2.15792887741867,-0.78));
#537=CARTESIAN_POINT('',(-1.46112492536064,2.15792887741867,0.43));
#538=CARTESIAN_POINT('',(-1.46112492536064,0.647217314690352,0.43));
#539=CARTESIAN_POINT('',(-1.46112492536064,0.647217314690352,0.));
#540=CARTESIAN_POINT('',(-1.46112492536064,-0.863494248037968,1.7347234759768E-16));
#541=CARTESIAN_POINT('',(-1.46112492536064,0.647217314690352,-0.78));
#542=CARTESIAN_POINT('',(-1.46112492536064,-0.863494248037968,-0.78));
#543=CARTESIAN_POINT('',(-1.46112492536064,-0.863494248037968,0.43));
#544=CARTESIAN_POINT('',(-0.938992891004679,-0.863494248037968,0.43));
#545=CARTESIAN_POINT('',(-0.938992891004679,-0.863494248037968,0.));
#546=CARTESIAN_POINT('',(-0.938992891004679,-0.863494248037968,-0.78));
#547=CARTESIAN_POINT('',(0.000508849642532824,0.647217314690352,-0.78));
#548=CARTESIAN_POINT('',(0.,0.,0.));
#549=CARTESIAN_POINT('',(0.000508849642532998,-1.22562628239393,0.));
#550=CARTESIAN_POINT('',(-0.938992891004679,-1.22562628239393,1.7347234759768E-16));
#551=CARTESIAN_POINT('',(0.940010590289745,-1.22562628239393,0.));
#552=CARTESIAN_POINT('',(-0.938992891004679,-0.863494248037968,0.));
#553=CARTESIAN_POINT('',(-1.30112492536064,-0.863494248037968,0.));
#554=CARTESIAN_POINT('',(-1.30112492536064,0.647217314690352,0.));
#555=CARTESIAN_POINT('',(-1.30112492536064,2.15792887741867,0.));
#556=CARTESIAN_POINT('',(-0.938992891004678,2.15792887741867,0.));
#557=CARTESIAN_POINT('',(-0.938992891004679,2.52006091177463,0.));
#558=CARTESIAN_POINT('',(0.000508849642532651,2.52006091177463,0.));
#559=CARTESIAN_POINT('',(0.940010590289744,2.52006091177463,0.));
#560=CARTESIAN_POINT('',(0.940010590289743,2.15792887741867,0.));
#561=CARTESIAN_POINT('',(1.30214262464571,2.15792887741867,0.));
#562=CARTESIAN_POINT('',(1.30214262464571,0.647217314690352,0.));
#563=CARTESIAN_POINT('',(1.30214262464571,-0.863494248037968,0.));
#564=CARTESIAN_POINT('',(0.940010590289744,-0.863494248037968,0.));
#565=CARTESIAN_POINT('',(0.000508849642532824,0.647217314690352,-0.62));
#566=CARTESIAN_POINT('',(0.000508849642532998,-1.22562628239393,-0.62));
#567=CARTESIAN_POINT('',(-0.938992891004679,-1.22562628239393,-0.62));
#568=CARTESIAN_POINT('',(0.940010590289745,-1.22562628239393,-0.62));
#569=CARTESIAN_POINT('',(0.940010590289744,-0.863494248037968,-0.62));
#570=CARTESIAN_POINT('',(1.30214262464571,-0.863494248037968,-0.62));
#571=CARTESIAN_POINT('',(1.30214262464571,0.647217314690352,-0.62));
#572=CARTESIAN_POINT('',(1.30214262464571,2.15792887741867,-0.62));
#573=CARTESIAN_POINT('',(0.940010590289743,2.15792887741867,-0.62));
#574=CARTESIAN_POINT('',(0.940010590289744,2.52006091177463,-0.62));
#575=CARTESIAN_POINT('',(0.000508849642532651,2.52006091177463,-0.62));
#576=CARTESIAN_POINT('',(-0.938992891004679,2.52006091177463,-0.62));
#577=CARTESIAN_POINT('',(-0.938992891004678,2.15792887741867,-0.62));
#578=CARTESIAN_POINT('',(-1.30112492536064,2.15792887741867,-0.62));
#579=CARTESIAN_POINT('',(-1.30112492536064,0.647217314690352,-0.62));
#580=CARTESIAN_POINT('',(-1.30112492536064,-0.863494248037968,-0.62));
#581=CARTESIAN_POINT('',(-0.938992891004679,-0.863494248037968,-0.62));
#582=CARTESIAN_POINT('',(-0.938992891004679,-0.863494248037968,0.43));
#583=CARTESIAN_POINT('',(-1.30112492536064,-0.863494248037968,0.43));
#584=CARTESIAN_POINT('',(-0.938992891004679,-1.22562628239393,0.43));
#585=CARTESIAN_POINT('',(-1.30112492536064,0.647217314690352,0.43));
#586=CARTESIAN_POINT('',(-1.30112492536064,2.15792887741867,0.43));
#587=CARTESIAN_POINT('',(-0.938992891004678,2.15792887741867,0.43));
#588=CARTESIAN_POINT('',(-0.938992891004679,2.52006091177463,0.43));
#589=CARTESIAN_POINT('',(0.000508849642532651,2.52006091177463,0.43));
#590=CARTESIAN_POINT('',(0.940010590289744,2.52006091177463,0.43));
#591=CARTESIAN_POINT('',(0.940010590289743,2.15792887741867,0.43));
#592=CARTESIAN_POINT('',(1.30214262464571,2.15792887741867,0.43));
#593=CARTESIAN_POINT('',(1.30214262464571,0.647217314690352,0.43));
#594=CARTESIAN_POINT('',(1.30214262464571,-0.863494248037968,0.43));
#595=CARTESIAN_POINT('',(0.940010590289744,-0.863494248037968,0.43));
#596=CARTESIAN_POINT('',(0.940010590289745,-1.22562628239393,0.43));
#597=CARTESIAN_POINT('',(0.000508849642532998,-1.22562628239393,0.43));
#598=MECHANICAL_DESIGN_GEOMETRIC_PRESENTATION_REPRESENTATION('',(#347),
#599);
#599=(
GEOMETRIC_REPRESENTATION_CONTEXT(3)
GLOBAL_UNCERTAINTY_ASSIGNED_CONTEXT((#600))
GLOBAL_UNIT_ASSIGNED_CONTEXT((#603,#602,#601))
REPRESENTATION_CONTEXT('Top cover','TOP_LEVEL_ASSEMBLY_PART')
);
#600=UNCERTAINTY_MEASURE_WITH_UNIT(LENGTH_MEASURE(1.E-6),#603,
'DISTANCE_ACCURACY_VALUE','Maximum Tolerance applied to model');
#601=(
NAMED_UNIT(*)
SI_UNIT($,.STERADIAN.)
SOLID_ANGLE_UNIT()
);
#602=(
NAMED_UNIT(*)
PLANE_ANGLE_UNIT()
SI_UNIT($,.RADIAN.)
);
#603=(
LENGTH_UNIT()
NAMED_UNIT(*)
SI_UNIT(.CENTI.,.METRE.)
);
#604=PRODUCT_DEFINITION_SHAPE('','',#605);
#605=PRODUCT_DEFINITION('','',#607,#606);
#606=PRODUCT_DEFINITION_CONTEXT('',#613,'design');
#607=PRODUCT_DEFINITION_FORMATION_WITH_SPECIFIED_SOURCE('','',#609,
 .NOT_KNOWN.);
#608=PRODUCT_RELATED_PRODUCT_CATEGORY('','',(#609));
#609=PRODUCT('Top cover','Top cover','Top cover',(#611));
#610=PRODUCT_CATEGORY('','');
#611=PRODUCT_CONTEXT('',#613,'mechanical');
#612=APPLICATION_PROTOCOL_DEFINITION('international standard',
'ap242_managed_model_based_3d_engineering',2020,#613);
#613=APPLICATION_CONTEXT('managed model based 3d engineering');
ENDSEC;
END-ISO-10303-21;
